<mxfile host="app.diagrams.net" modified="2023-06-28T07:24:29.413Z" agent="Mozilla/5.0 (Windows NT 10.0; Win64; x64) AppleWebKit/537.36 (KHTML, like Gecko) Chrome/114.0.0.0 Safari/537.36" version="21.5.1" etag="q8ldkBEJ6UZf1Ti7US3U" type="github">
  <diagram name="Halaman-1" id="BE-nQe8Ev-QJaeU4vyLo">
    <mxGraphModel>
      <root>
        <mxCell id="0" />
        <mxCell id="1" parent="0" />
      </root>
    </mxGraphModel>
  </diagram>
</mxfile>
